<svg xmlns="http://www.w3.org/2000/svg" viewBox="0 0 268.25 299.8"><defs><style>.cls-1{fill:#129c96;}.cls-2{fill:#0bd5a1;}.cls-3{fill:#0dc494;}.cls-4{fill:#0fecb3;}</style></defs><g id="Layer_2" data-name="Layer 2"><g id="Layer_1-2" data-name="Layer 1"><g id="Layer_2-2" data-name="Layer 2"><g id="Layer_1-2-2" data-name="Layer 1-2"><path class="cls-1" d="M128,0h12c2.49,1.17,5.08,2.16,7.46,3.52q53.64,30.75,107.19,61.62c8.89,5.14,13.33,13.22,13.42,23.54q.11,12,0,24c0,1.18.69,2.65-.9,3.65-.71-1-1.46-1.84-2.07-2.8-5.82-9.1-14-13-24.87-12.66-10.57.31-20.76,2.44-31,4.69-7.36,1.63-14.79,2.91-22-.16-5-2.12-8.61-1-11.39,3.63-3.21,5.38-8.06,8.09-14.28,7-7.74-1.43-11.71,2.63-14.78,8.8-4,8-4.73,16.53-5.12,25.2L137,152.91c-3.58.71-6.68-1-9.94-2l-.72-.87c.18-10.31-1.21-20.23-7.09-29.06-2.5-3.75-5.66-5.89-10.48-5-7.31,1.29-13-1.08-16.93-7.64-2.27-3.84-5.6-5-9.82-3.19-6.4,2.69-12.94,2.44-19.61,1.13C51.63,104.16,41,101.4,30,100.85c-11.84-.59-21.2,3-27.45,13.49-.49.83-.67,2.36-2.45,2,0-9.66-.14-19.31,0-28.95S4.7,70.14,12.92,65.47C51.29,43.65,89,20.61,128,0Z"/><path class="cls-2" d="M202,264.8c-20.46,12-40.63,24.53-61.93,35H127c-7.39-4.3-15.31-7.71-22.18-12.91,10.52-3.12,15.52-10.82,17.25-21.08s1.08-20.53.47-30.82c-1-16.55-2.19-33.07,0-49.67,1.5-11.5,5.67-22.66,4.48-34.5,3.26,1,6.36,2.67,9.94,2,.18,3,.17,6,.58,8.93,3,21.92,15.59,37.68,32.8,50.24,8.31,6.06,17,11.67,24.54,18.68,10.18,9.5,14.57,18.07,8.3,29.34C202.41,261.4,202.35,263.19,202,264.8Z"/><path class="cls-3" d="M127,150.86c1.19,11.84-3,23-4.48,34.5-2.17,16.6-1,33.12,0,49.67.61,10.29,1.26,20.59-.47,30.82s-6.73,18-17.25,21.08c-13.13-6.47-25.48-14.34-38.2-21.53-16.8-9.5-33.43-19.28-50.29-28.67-4-2.21-4.84-4.93-4-9,2-9.92,7.69-16.78,17-20.58,16-6.51,32-13.13,47.62-20.52a109.44,109.44,0,0,0,40.44-32.55c2.37-3.07,4.92-4.85,8.86-4.09Z"/><path class="cls-4" d="M202,264.8c.39-1.61.45-3.4,1.23-4.79,6.27-11.27,1.88-19.84-8.3-29.34-7.52-7-16.23-12.62-24.54-18.68-17.21-12.56-29.82-28.32-32.8-50.24-.41-2.94-.4-6-.58-8.93l4.66-2.9c3.82-.59,6.54.82,8.92,4,11.77,15.6,27,26.75,44.77,34.74,14.22,6.4,28.59,12.46,43,18.33,10.39,4.22,16.57,11.82,17.66,23.25.24,2.42-.36,4.13-2.56,5.37Q227.7,250.16,202,264.8Z"/></g></g></g></g></svg>